<?xml version="1.0" encoding="UTF-8" ?>
<!DOCTYPE score-partwise PUBLIC '-//Recordare//DTD MusicXML 2.0 Partwise//EN' 'http://www.musicxml.org/dtds/2.0/partwise.dtd'>
<score-partwise version="2.0">
 <identification>
  <encoding>
   <encoding-date>2019-10-11</encoding-date>
   <software>Guitar Pro 7.5.0</software>
  </encoding>
 </identification>
 <defaults>
  <scaling>
   <millimeters>6.4</millimeters>
   <tenths>40</tenths>
  </scaling>
  <page-layout>
   <page-height>1850</page-height>
   <page-width>1310</page-width>
  </page-layout>
 </defaults>
 <part-list>
  <score-part id="P1">
   <part-name>Steel Guitar</part-name>
   <part-abbreviation>s.guit.</part-abbreviation>
   <midi-instrument id="P1">
    <midi-channel>1</midi-channel>
    <midi-bank>1</midi-bank>
    <midi-program>26</midi-program>
    <volume>80</volume>
    <pan>0</pan>
   </midi-instrument>
  </score-part>
 </part-list>
 <part id="P1">
  <measure number="1">
   <attributes>
    <divisions>1</divisions>
    <key>
     <fifths>0</fifths>
     <mode>major</mode>
    </key>
    <time>
     <beats>6</beats>
     <beat-type>8</beat-type>
    </time>
        <clef number="1">
         <sign>TAB</sign>
         <line>5</line>
        </clef>
    <staff-details number="1">
     <staff-lines>6</staff-lines>
     <staff-tuning line="1">
      <tuning-step>E</tuning-step>
      <tuning-octave>2</tuning-octave>
     </staff-tuning>
     <staff-tuning line="2">
      <tuning-step>A</tuning-step>
      <tuning-octave>2</tuning-octave>
     </staff-tuning>
     <staff-tuning line="3">
      <tuning-step>D</tuning-step>
      <tuning-octave>3</tuning-octave>
     </staff-tuning>
     <staff-tuning line="4">
      <tuning-step>G</tuning-step>
      <tuning-octave>3</tuning-octave>
     </staff-tuning>
     <staff-tuning line="5">
      <tuning-step>B</tuning-step>
      <tuning-octave>3</tuning-octave>
     </staff-tuning>
     <staff-tuning line="6">
      <tuning-step>E</tuning-step>
      <tuning-octave>4</tuning-octave>
     </staff-tuning>
    </staff-details>
   </attributes>
   <harmony>
    <root>
     <root-step>A</root-step>
     <root-alter>0</root-alter>
    </root>
    <kind>suspended-second</kind>
    <frame>
     <frame-strings>6</frame-strings>
     <frame-frets>5</frame-frets>
     <first-fret>2</first-fret>
     <frame-note>
      <string>5</string>
      <fret>0</fret>
     </frame-note>
     <frame-note>
      <string>4</string>
      <fret>2</fret>
     </frame-note>
     <frame-note>
      <string>3</string>
      <fret>2</fret>
     </frame-note>
     <frame-note>
      <string>2</string>
      <fret>0</fret>
     </frame-note>
     <frame-note>
      <string>1</string>
      <fret>0</fret>
     </frame-note>
    </frame>
   </harmony>
   <note>
    <pitch>
     <step>A</step>
     <octave>2</octave>
    </pitch>
    <duration>1</duration>
    <tie type="start"/>
    <voice>1</voice>
    <type>quarter</type>
    <stem>up</stem>
    <notations>
     <dynamics>
      <mf/>
     </dynamics>
     <technical>
      <string>5</string>
      <fret>0</fret>
     </technical>
     <arpeggiate direction="up"/>
     <tied type="start"/>
    </notations>
   </note>
   <direction directive="yes">
    <direction-type>
     <metronome parentheses="yes" default-y="40">
      <beat-unit>quarter</beat-unit>
      <per-minute>120</per-minute>
     </metronome>
    </direction-type>
    <sound tempo="120"/>
   </direction>
   <note>
    <chord/>
    <pitch>
     <step>E</step>
     <octave>3</octave>
    </pitch>
    <duration>1</duration>
    <tie type="start"/>
    <voice>1</voice>
    <type>quarter</type>
    <stem>up</stem>
    <notations>
     <dynamics>
      <mf/>
     </dynamics>
     <technical>
      <string>4</string>
      <fret>2</fret>
     </technical>
     <arpeggiate direction="up"/>
     <tied type="start"/>
    </notations>
   </note>
   <note>
    <chord/>
    <pitch>
     <step>A</step>
     <octave>3</octave>
    </pitch>
    <duration>1</duration>
    <tie type="start"/>
    <voice>1</voice>
    <type>quarter</type>
    <stem>up</stem>
    <notations>
     <dynamics>
      <mf/>
     </dynamics>
     <technical>
      <string>3</string>
      <fret>2</fret>
     </technical>
     <arpeggiate direction="up"/>
     <tied type="start"/>
    </notations>
   </note>
   <note>
    <chord/>
    <pitch>
     <step>B</step>
     <octave>3</octave>
    </pitch>
    <duration>1</duration>
    <tie type="start"/>
    <voice>1</voice>
    <type>quarter</type>
    <stem>up</stem>
    <notations>
     <dynamics>
      <mf/>
     </dynamics>
     <technical>
      <string>2</string>
      <fret>0</fret>
     </technical>
     <arpeggiate direction="up"/>
     <tied type="start"/>
    </notations>
   </note>
   <note>
    <chord/>
    <pitch>
     <step>E</step>
     <octave>4</octave>
    </pitch>
    <duration>1</duration>
    <tie type="start"/>
    <voice>1</voice>
    <type>quarter</type>
    <stem>up</stem>
    <notations>
     <dynamics>
      <mf/>
     </dynamics>
     <technical>
      <string>1</string>
      <fret>0</fret>
     </technical>
     <arpeggiate direction="up"/>
     <tied type="start"/>
    </notations>
   </note>
   <note>
    <pitch>
     <step>A</step>
     <octave>2</octave>
    </pitch>
    <duration>1</duration>
    <tie type="stop"/>
    <voice>1</voice>
    <type>quarter</type>
    <stem>up</stem>
    <notations>
     <dynamics>
      <mf/>
     </dynamics>
     <technical>
      <string>5</string>
      <fret>0</fret>
     </technical>
     <tied type="stop"/>
    </notations>
   </note>
   <note>
    <chord/>
    <pitch>
     <step>E</step>
     <octave>3</octave>
    </pitch>
    <duration>1</duration>
    <tie type="stop"/>
    <voice>1</voice>
    <type>quarter</type>
    <stem>up</stem>
    <notations>
     <dynamics>
      <mf/>
     </dynamics>
     <technical>
      <string>4</string>
      <fret>2</fret>
     </technical>
     <tied type="stop"/>
    </notations>
   </note>
   <note>
    <chord/>
    <pitch>
     <step>A</step>
     <octave>3</octave>
    </pitch>
    <duration>1</duration>
    <tie type="stop"/>
    <voice>1</voice>
    <type>quarter</type>
    <stem>up</stem>
    <notations>
     <dynamics>
      <mf/>
     </dynamics>
     <technical>
      <string>3</string>
      <fret>2</fret>
     </technical>
     <tied type="stop"/>
    </notations>
   </note>
   <note>
    <chord/>
    <pitch>
     <step>B</step>
     <octave>3</octave>
    </pitch>
    <duration>1</duration>
    <tie type="stop"/>
    <voice>1</voice>
    <type>quarter</type>
    <stem>up</stem>
    <notations>
     <dynamics>
      <mf/>
     </dynamics>
     <technical>
      <string>2</string>
      <fret>0</fret>
     </technical>
     <tied type="stop"/>
    </notations>
   </note>
   <note>
    <chord/>
    <pitch>
     <step>E</step>
     <octave>4</octave>
    </pitch>
    <duration>1</duration>
    <tie type="stop"/>
    <voice>1</voice>
    <type>quarter</type>
    <stem>up</stem>
    <notations>
     <dynamics>
      <mf/>
     </dynamics>
     <technical>
      <string>1</string>
      <fret>0</fret>
     </technical>
     <tied type="stop"/>
    </notations>
   </note>
   <harmony>
    <root>
     <root-step>C</root-step>
     <root-alter>0</root-alter>
    </root>
    <kind>major</kind>
    <frame>
     <frame-strings>6</frame-strings>
     <frame-frets>5</frame-frets>
     <first-fret>1</first-fret>
     <frame-note>
      <string>5</string>
      <fret>3</fret>
     </frame-note>
     <frame-note>
      <string>4</string>
      <fret>2</fret>
     </frame-note>
     <frame-note>
      <string>3</string>
      <fret>0</fret>
     </frame-note>
     <frame-note>
      <string>2</string>
      <fret>1</fret>
     </frame-note>
     <frame-note>
      <string>1</string>
      <fret>0</fret>
     </frame-note>
    </frame>
   </harmony>
   <note>
    <pitch>
     <step>C</step>
     <octave>3</octave>
    </pitch>
    <duration>1</duration>
    <tie type="start"/>
    <voice>1</voice>
    <type>quarter</type>
    <stem>up</stem>
    <notations>
     <dynamics>
      <mf/>
     </dynamics>
     <technical>
      <string>5</string>
      <fret>3</fret>
     </technical>
     <tied type="start"/>
    </notations>
   </note>
   <note>
    <chord/>
    <pitch>
     <step>E</step>
     <octave>3</octave>
    </pitch>
    <duration>1</duration>
    <tie type="start"/>
    <voice>1</voice>
    <type>quarter</type>
    <stem>up</stem>
    <notations>
     <dynamics>
      <mf/>
     </dynamics>
     <technical>
      <string>4</string>
      <fret>2</fret>
     </technical>
     <tied type="start"/>
    </notations>
   </note>
   <note>
    <chord/>
    <pitch>
     <step>G</step>
     <octave>3</octave>
    </pitch>
    <duration>1</duration>
    <tie type="start"/>
    <voice>1</voice>
    <type>quarter</type>
    <stem>up</stem>
    <notations>
     <dynamics>
      <mf/>
     </dynamics>
     <technical>
      <string>3</string>
      <fret>0</fret>
     </technical>
     <tied type="start"/>
    </notations>
   </note>
   <note>
    <chord/>
    <pitch>
     <step>C</step>
     <octave>4</octave>
    </pitch>
    <duration>1</duration>
    <tie type="start"/>
    <voice>1</voice>
    <type>quarter</type>
    <stem>up</stem>
    <notations>
     <dynamics>
      <mf/>
     </dynamics>
     <technical>
      <string>2</string>
      <fret>1</fret>
     </technical>
     <tied type="start"/>
    </notations>
   </note>
   <note>
    <chord/>
    <pitch>
     <step>E</step>
     <octave>4</octave>
    </pitch>
    <duration>1</duration>
    <tie type="start"/>
    <voice>1</voice>
    <type>quarter</type>
    <stem>up</stem>
    <notations>
     <dynamics>
      <mf/>
     </dynamics>
     <technical>
      <string>1</string>
      <fret>0</fret>
     </technical>
     <tied type="start"/>
    </notations>
   </note>
  </measure>
  <measure number="2">
   <note>
    <pitch>
     <step>C</step>
     <octave>3</octave>
    </pitch>
    <duration>3</duration>
    <tie type="stop"/>
    <voice>1</voice>
    <type>half</type>
    <dot/>
    <stem>up</stem>
    <notations>
     <technical>
      <string>5</string>
      <fret>3</fret>
     </technical>
     <tied type="stop"/>
    </notations>
   </note>
   <note>
    <chord/>
    <pitch>
     <step>E</step>
     <octave>3</octave>
    </pitch>
    <duration>3</duration>
    <tie type="stop"/>
    <voice>1</voice>
    <type>half</type>
    <dot/>
    <stem>up</stem>
    <notations>
     <technical>
      <string>4</string>
      <fret>2</fret>
     </technical>
     <tied type="stop"/>
    </notations>
   </note>
   <note>
    <chord/>
    <pitch>
     <step>G</step>
     <octave>3</octave>
    </pitch>
    <duration>3</duration>
    <tie type="stop"/>
    <voice>1</voice>
    <type>half</type>
    <dot/>
    <stem>up</stem>
    <notations>
     <technical>
      <string>3</string>
      <fret>0</fret>
     </technical>
     <tied type="stop"/>
    </notations>
   </note>
   <note>
    <chord/>
    <pitch>
     <step>C</step>
     <octave>4</octave>
    </pitch>
    <duration>3</duration>
    <tie type="stop"/>
    <voice>1</voice>
    <type>half</type>
    <dot/>
    <stem>up</stem>
    <notations>
     <technical>
      <string>2</string>
      <fret>1</fret>
     </technical>
     <tied type="stop"/>
    </notations>
   </note>
   <note>
    <chord/>
    <pitch>
     <step>E</step>
     <octave>4</octave>
    </pitch>
    <duration>3</duration>
    <tie type="stop"/>
    <voice>1</voice>
    <type>half</type>
    <dot/>
    <stem>up</stem>
    <notations>
     <technical>
      <string>1</string>
      <fret>0</fret>
     </technical>
     <tied type="stop"/>
    </notations>
   </note>
  </measure>
  <measure number="3">
   <attributes>
    <divisions>2</divisions>
   </attributes>
   <note>
    <pitch>
     <step>A</step>
     <octave>4</octave>
    </pitch>
    <duration>2</duration>
    <voice>1</voice>
    <type>quarter</type>
    <stem>up</stem>
    <notations>
     <technical>
      <bend>
       <bend-alter>2</bend-alter>
      </bend>
      <bend>
       <bend-alter>0</bend-alter>
       <release/>
      </bend>
      <string>2</string>
      <fret>10</fret>
     </technical>
    </notations>
   </note>
   <note>
    <pitch>
     <step>G</step>
     <octave>4</octave>
    </pitch>
    <duration>1</duration>
    <voice>1</voice>
    <type>eighth</type>
    <stem>up</stem>
    <notations>
     <technical>
      <string>2</string>
      <fret>8</fret>
     </technical>
    </notations>
   </note>
   <note>
    <pitch>
     <step>E</step>
     <octave>4</octave>
    </pitch>
    <duration>1</duration>
    <voice>1</voice>
    <type>eighth</type>
    <stem>up</stem>
    <notations>
     <technical>
      <string>3</string>
      <fret>9</fret>
     </technical>
    </notations>
   </note>
   <note>
    <pitch>
     <step>F</step>
     <octave>4</octave>
    </pitch>
    <duration>2</duration>
    <voice>1</voice>
    <type>quarter</type>
    <stem>up</stem>
    <notations>
     <technical>
      <string>3</string>
      <fret>10</fret>
     </technical>
     <slide number="4" type="start"/>
    </notations>
   </note>
  </measure>
  <measure number="4">
   <attributes>
    <divisions>1</divisions>
   </attributes>
   <note>
    <pitch>
     <step>G</step>
     <octave>4</octave>
    </pitch>
    <duration>3</duration>
    <voice>1</voice>
    <type>half</type>
    <dot/>
    <stem>up</stem>
    <notations>
     <technical>
      <string>3</string>
      <fret>12</fret>
     </technical>
     <slide number="4" type="stop"/>
    </notations>
   </note>
  </measure>
  <measure number="5">
   <attributes>
    <divisions>4</divisions>
   </attributes>
   <harmony>
    <root>
     <root-step>A</root-step>
     <root-alter>0</root-alter>
    </root>
    <kind>suspended-second</kind>
    <frame>
     <frame-strings>6</frame-strings>
     <frame-frets>5</frame-frets>
     <first-fret>2</first-fret>
     <frame-note>
      <string>5</string>
      <fret>0</fret>
     </frame-note>
     <frame-note>
      <string>4</string>
      <fret>2</fret>
     </frame-note>
     <frame-note>
      <string>3</string>
      <fret>2</fret>
     </frame-note>
     <frame-note>
      <string>2</string>
      <fret>0</fret>
     </frame-note>
     <frame-note>
      <string>1</string>
      <fret>0</fret>
     </frame-note>
    </frame>
   </harmony>
   <note>
    <pitch>
     <step>A</step>
     <octave>2</octave>
    </pitch>
    <duration>2</duration>
    <voice>1</voice>
    <type>eighth</type>
    <stem>up</stem>
    <beam number="1">begin</beam>
    <notations>
     <technical>
      <string>5</string>
      <fret>0</fret>
     </technical>
<?GP7 <root><brush type="down"/></root>?>
    </notations>
   </note>
   <note>
    <chord/>
    <pitch>
     <step>E</step>
     <octave>3</octave>
    </pitch>
    <duration>2</duration>
    <voice>1</voice>
    <type>eighth</type>
    <stem>up</stem>
    <beam number="1">begin</beam>
    <notations>
     <technical>
      <string>4</string>
      <fret>2</fret>
     </technical>
<?GP7 <root><brush type="down"/></root>?>
    </notations>
   </note>
   <note>
    <chord/>
    <pitch>
     <step>A</step>
     <octave>3</octave>
    </pitch>
    <duration>2</duration>
    <voice>1</voice>
    <type>eighth</type>
    <stem>up</stem>
    <beam number="1">begin</beam>
    <notations>
     <technical>
      <string>3</string>
      <fret>2</fret>
     </technical>
<?GP7 <root><brush type="down"/></root>?>
    </notations>
   </note>
   <note>
    <chord/>
    <pitch>
     <step>B</step>
     <octave>3</octave>
    </pitch>
    <duration>2</duration>
    <voice>1</voice>
    <type>eighth</type>
    <stem>up</stem>
    <beam number="1">begin</beam>
    <notations>
     <technical>
      <string>2</string>
      <fret>0</fret>
     </technical>
<?GP7 <root><brush type="down"/></root>?>
    </notations>
   </note>
   <note>
    <chord/>
    <pitch>
     <step>E</step>
     <octave>4</octave>
    </pitch>
    <duration>2</duration>
    <voice>1</voice>
    <type>eighth</type>
    <stem>up</stem>
    <beam number="1">begin</beam>
    <notations>
     <technical>
      <string>1</string>
      <fret>0</fret>
     </technical>
<?GP7 <root><brush type="down"/></root>?>
    </notations>
   </note>
   <note>
    <pitch>
     <step>A</step>
     <octave>2</octave>
    </pitch>
    <duration>1</duration>
    <voice>1</voice>
    <type>16th</type>
    <stem>up</stem>
    <beam number="1">continue</beam>
    <beam number="2">begin</beam>
    <notations>
     <technical>
      <string>5</string>
      <fret>0</fret>
     </technical>
<?GP7 <root><brush type="down"/></root>?>
     <slur type="start"/>
    </notations>
   </note>
   <note>
    <chord/>
    <pitch>
     <step>E</step>
     <octave>3</octave>
    </pitch>
    <duration>1</duration>
    <voice>1</voice>
    <type>16th</type>
    <stem>up</stem>
    <beam number="1">continue</beam>
    <beam number="2">begin</beam>
    <notations>
     <technical>
      <string>4</string>
      <fret>2</fret>
     </technical>
<?GP7 <root><brush type="down"/></root>?>
     <slur type="start"/>
    </notations>
   </note>
   <note>
    <chord/>
    <pitch>
     <step>A</step>
     <octave>3</octave>
    </pitch>
    <duration>1</duration>
    <voice>1</voice>
    <type>16th</type>
    <stem>up</stem>
    <beam number="1">continue</beam>
    <beam number="2">begin</beam>
    <notations>
     <technical>
      <string>3</string>
      <fret>2</fret>
     </technical>
<?GP7 <root><brush type="down"/></root>?>
     <slur type="start"/>
    </notations>
   </note>
   <note>
    <chord/>
    <pitch>
     <step>B</step>
     <octave>3</octave>
    </pitch>
    <duration>1</duration>
    <voice>1</voice>
    <type>16th</type>
    <stem>up</stem>
    <beam number="1">continue</beam>
    <beam number="2">begin</beam>
    <notations>
     <technical>
      <hammer-on number="1" type="start">H</hammer-on>
      <string>2</string>
      <fret>0</fret>
     </technical>
<?GP7 <root><brush type="down"/></root>?>
     <slur type="start"/>
    </notations>
   </note>
   <note>
    <chord/>
    <pitch>
     <step>E</step>
     <octave>4</octave>
    </pitch>
    <duration>1</duration>
    <voice>1</voice>
    <type>16th</type>
    <stem>up</stem>
    <beam number="1">continue</beam>
    <beam number="2">begin</beam>
    <notations>
     <technical>
      <string>1</string>
      <fret>0</fret>
     </technical>
<?GP7 <root><brush type="down"/></root>?>
     <slur type="start"/>
    </notations>
   </note>
   <note>
    <pitch>
     <step>C</step>
     <alter>1</alter>
     <octave>4</octave>
    </pitch>
    <duration>1</duration>
    <voice>1</voice>
    <type>16th</type>
    <accidental>sharp</accidental>
    <stem>up</stem>
    <beam number="1">continue</beam>
    <beam number="2">end</beam>
    <notations>
     <technical>
      <hammer-on number="1" type="stop"/>
      <string>2</string>
      <fret>2</fret>
     </technical>
     <slur type="stop"/>
    </notations>
   </note>
   <harmony>
    <root>
     <root-step>A</root-step>
     <root-alter>0</root-alter>
    </root>
    <kind>major</kind>
    <frame>
     <frame-strings>6</frame-strings>
     <frame-frets>5</frame-frets>
     <first-fret>2</first-fret>
     <frame-note>
      <string>5</string>
      <fret>0</fret>
     </frame-note>
     <frame-note>
      <string>4</string>
      <fret>2</fret>
     </frame-note>
     <frame-note>
      <string>3</string>
      <fret>2</fret>
     </frame-note>
     <frame-note>
      <string>2</string>
      <fret>2</fret>
     </frame-note>
     <frame-note>
      <string>1</string>
      <fret>0</fret>
     </frame-note>
    </frame>
   </harmony>
   <note>
    <pitch>
     <step>A</step>
     <octave>2</octave>
    </pitch>
    <duration>2</duration>
    <voice>1</voice>
    <type>eighth</type>
    <stem>up</stem>
    <beam number="1">end</beam>
    <notations>
     <technical>
      <string>5</string>
      <fret>0</fret>
     </technical>
<?GP7 <root><brush type="down"/></root>?>
    </notations>
   </note>
   <note>
    <chord/>
    <pitch>
     <step>E</step>
     <octave>3</octave>
    </pitch>
    <duration>2</duration>
    <voice>1</voice>
    <type>eighth</type>
    <stem>up</stem>
    <beam number="1">end</beam>
    <notations>
     <technical>
      <string>4</string>
      <fret>2</fret>
     </technical>
<?GP7 <root><brush type="down"/></root>?>
    </notations>
   </note>
   <note>
    <chord/>
    <pitch>
     <step>A</step>
     <octave>3</octave>
    </pitch>
    <duration>2</duration>
    <voice>1</voice>
    <type>eighth</type>
    <stem>up</stem>
    <beam number="1">end</beam>
    <notations>
     <technical>
      <string>3</string>
      <fret>2</fret>
     </technical>
<?GP7 <root><brush type="down"/></root>?>
    </notations>
   </note>
   <note>
    <chord/>
    <pitch>
     <step>C</step>
     <alter>1</alter>
     <octave>4</octave>
    </pitch>
    <duration>2</duration>
    <voice>1</voice>
    <type>eighth</type>
    <stem>up</stem>
    <beam number="1">end</beam>
    <notations>
     <technical>
      <string>2</string>
      <fret>2</fret>
     </technical>
<?GP7 <root><brush type="down"/></root>?>
    </notations>
   </note>
   <note>
    <chord/>
    <pitch>
     <step>E</step>
     <octave>4</octave>
    </pitch>
    <duration>2</duration>
    <voice>1</voice>
    <type>eighth</type>
    <stem>up</stem>
    <beam number="1">end</beam>
    <notations>
     <technical>
      <string>1</string>
      <fret>0</fret>
     </technical>
<?GP7 <root><brush type="down"/></root>?>
    </notations>
   </note>
   <note>
    <pitch>
     <step>A</step>
     <octave>2</octave>
    </pitch>
    <duration>2</duration>
    <voice>1</voice>
    <type>eighth</type>
    <stem>up</stem>
    <beam number="1">begin</beam>
    <notations>
     <technical>
      <string>5</string>
      <fret>0</fret>
     </technical>
<?GP7 <root><brush type="down"/></root>?>
    </notations>
   </note>
   <note>
    <chord/>
    <pitch>
     <step>E</step>
     <octave>3</octave>
    </pitch>
    <duration>2</duration>
    <voice>1</voice>
    <type>eighth</type>
    <stem>up</stem>
    <beam number="1">begin</beam>
    <notations>
     <technical>
      <string>4</string>
      <fret>2</fret>
     </technical>
<?GP7 <root><brush type="down"/></root>?>
    </notations>
   </note>
   <note>
    <chord/>
    <pitch>
     <step>A</step>
     <octave>3</octave>
    </pitch>
    <duration>2</duration>
    <voice>1</voice>
    <type>eighth</type>
    <stem>up</stem>
    <beam number="1">begin</beam>
    <notations>
     <technical>
      <string>3</string>
      <fret>2</fret>
     </technical>
<?GP7 <root><brush type="down"/></root>?>
    </notations>
   </note>
   <note>
    <chord/>
    <pitch>
     <step>C</step>
     <alter>1</alter>
     <octave>4</octave>
    </pitch>
    <duration>2</duration>
    <voice>1</voice>
    <type>eighth</type>
    <stem>up</stem>
    <beam number="1">begin</beam>
    <notations>
     <technical>
      <string>2</string>
      <fret>2</fret>
     </technical>
<?GP7 <root><brush type="down"/></root>?>
    </notations>
   </note>
   <note>
    <chord/>
    <pitch>
     <step>E</step>
     <octave>4</octave>
    </pitch>
    <duration>2</duration>
    <voice>1</voice>
    <type>eighth</type>
    <stem>up</stem>
    <beam number="1">begin</beam>
    <notations>
     <technical>
      <string>1</string>
      <fret>0</fret>
     </technical>
<?GP7 <root><brush type="down"/></root>?>
    </notations>
   </note>
   <note>
    <pitch>
     <step>A</step>
     <octave>2</octave>
    </pitch>
    <duration>2</duration>
    <voice>1</voice>
    <type>eighth</type>
    <stem>up</stem>
    <beam number="1">continue</beam>
    <notations>
     <technical>
      <string>5</string>
      <fret>0</fret>
     </technical>
<?GP7 <root><brush type="down"/></root>?>
    </notations>
   </note>
   <note>
    <chord/>
    <pitch>
     <step>E</step>
     <octave>3</octave>
    </pitch>
    <duration>2</duration>
    <voice>1</voice>
    <type>eighth</type>
    <stem>up</stem>
    <beam number="1">continue</beam>
    <notations>
     <technical>
      <string>4</string>
      <fret>2</fret>
     </technical>
<?GP7 <root><brush type="down"/></root>?>
    </notations>
   </note>
   <note>
    <chord/>
    <pitch>
     <step>A</step>
     <octave>3</octave>
    </pitch>
    <duration>2</duration>
    <voice>1</voice>
    <type>eighth</type>
    <stem>up</stem>
    <beam number="1">continue</beam>
    <notations>
     <technical>
      <string>3</string>
      <fret>2</fret>
     </technical>
<?GP7 <root><brush type="down"/></root>?>
    </notations>
   </note>
   <note>
    <chord/>
    <pitch>
     <step>C</step>
     <alter>1</alter>
     <octave>4</octave>
    </pitch>
    <duration>2</duration>
    <voice>1</voice>
    <type>eighth</type>
    <stem>up</stem>
    <beam number="1">continue</beam>
    <notations>
     <technical>
      <string>2</string>
      <fret>2</fret>
     </technical>
<?GP7 <root><brush type="down"/></root>?>
    </notations>
   </note>
   <note>
    <chord/>
    <pitch>
     <step>E</step>
     <octave>4</octave>
    </pitch>
    <duration>2</duration>
    <voice>1</voice>
    <type>eighth</type>
    <stem>up</stem>
    <beam number="1">continue</beam>
    <notations>
     <technical>
      <string>1</string>
      <fret>0</fret>
     </technical>
<?GP7 <root><brush type="down"/></root>?>
    </notations>
   </note>
   <note>
    <pitch>
     <step>A</step>
     <octave>2</octave>
    </pitch>
    <duration>2</duration>
    <voice>1</voice>
    <type>eighth</type>
    <stem>up</stem>
    <beam number="1">end</beam>
    <notations>
     <technical>
      <string>5</string>
      <fret>0</fret>
     </technical>
<?GP7 <root><brush type="down"/></root>?>
    </notations>
   </note>
   <note>
    <chord/>
    <pitch>
     <step>E</step>
     <octave>3</octave>
    </pitch>
    <duration>2</duration>
    <voice>1</voice>
    <type>eighth</type>
    <stem>up</stem>
    <beam number="1">end</beam>
    <notations>
     <technical>
      <string>4</string>
      <fret>2</fret>
     </technical>
<?GP7 <root><brush type="down"/></root>?>
    </notations>
   </note>
   <note>
    <chord/>
    <pitch>
     <step>A</step>
     <octave>3</octave>
    </pitch>
    <duration>2</duration>
    <voice>1</voice>
    <type>eighth</type>
    <stem>up</stem>
    <beam number="1">end</beam>
    <notations>
     <technical>
      <string>3</string>
      <fret>2</fret>
     </technical>
<?GP7 <root><brush type="down"/></root>?>
    </notations>
   </note>
   <note>
    <chord/>
    <pitch>
     <step>C</step>
     <alter>1</alter>
     <octave>4</octave>
    </pitch>
    <duration>2</duration>
    <voice>1</voice>
    <type>eighth</type>
    <stem>up</stem>
    <beam number="1">end</beam>
    <notations>
     <technical>
      <string>2</string>
      <fret>2</fret>
     </technical>
<?GP7 <root><brush type="down"/></root>?>
    </notations>
   </note>
   <note>
    <chord/>
    <pitch>
     <step>E</step>
     <octave>4</octave>
    </pitch>
    <duration>2</duration>
    <voice>1</voice>
    <type>eighth</type>
    <stem>up</stem>
    <beam number="1">end</beam>
    <notations>
     <technical>
      <string>1</string>
      <fret>0</fret>
     </technical>
<?GP7 <root><brush type="down"/></root>?>
    </notations>
   </note>
  </measure>
  <measure number="6">
   <attributes>
    <divisions>1</divisions>
   </attributes>
   <note>
    <rest/>
    <duration>3</duration>
    <voice>1</voice>
    <type>half</type>
    <dot/>
   </note>
  </measure>
  <measure number="7">
   <harmony>
    <root>
     <root-step>C</root-step>
     <root-alter>0</root-alter>
    </root>
    <kind>major</kind>
    <frame>
     <frame-strings>6</frame-strings>
     <frame-frets>5</frame-frets>
     <first-fret>1</first-fret>
     <frame-note>
      <string>5</string>
      <fret>3</fret>
     </frame-note>
     <frame-note>
      <string>4</string>
      <fret>2</fret>
     </frame-note>
     <frame-note>
      <string>3</string>
      <fret>0</fret>
     </frame-note>
     <frame-note>
      <string>2</string>
      <fret>1</fret>
     </frame-note>
     <frame-note>
      <string>1</string>
      <fret>0</fret>
     </frame-note>
    </frame>
   </harmony>
   <note>
    <pitch>
     <step>C</step>
     <octave>3</octave>
    </pitch>
    <duration>1</duration>
    <tie type="start"/>
    <voice>1</voice>
    <type>quarter</type>
    <stem>up</stem>
    <notations>
     <technical>
      <string>5</string>
      <fret>3</fret>
     </technical>
     <arpeggiate direction="up"/>
     <tied type="start"/>
    </notations>
   </note>
   <note>
    <chord/>
    <pitch>
     <step>E</step>
     <octave>3</octave>
    </pitch>
    <duration>1</duration>
    <tie type="start"/>
    <voice>1</voice>
    <type>quarter</type>
    <stem>up</stem>
    <notations>
     <technical>
      <string>4</string>
      <fret>2</fret>
     </technical>
     <arpeggiate direction="up"/>
     <tied type="start"/>
    </notations>
   </note>
   <note>
    <chord/>
    <pitch>
     <step>G</step>
     <octave>3</octave>
    </pitch>
    <duration>1</duration>
    <tie type="start"/>
    <voice>1</voice>
    <type>quarter</type>
    <stem>up</stem>
    <notations>
     <technical>
      <string>3</string>
      <fret>0</fret>
     </technical>
     <arpeggiate direction="up"/>
     <tied type="start"/>
    </notations>
   </note>
   <note>
    <chord/>
    <pitch>
     <step>C</step>
     <octave>4</octave>
    </pitch>
    <duration>1</duration>
    <tie type="start"/>
    <voice>1</voice>
    <type>quarter</type>
    <stem>up</stem>
    <notations>
     <technical>
      <string>2</string>
      <fret>1</fret>
     </technical>
     <arpeggiate direction="up"/>
     <tied type="start"/>
    </notations>
   </note>
   <note>
    <chord/>
    <pitch>
     <step>E</step>
     <octave>4</octave>
    </pitch>
    <duration>1</duration>
    <tie type="start"/>
    <voice>1</voice>
    <type>quarter</type>
    <stem>up</stem>
    <notations>
     <technical>
      <string>1</string>
      <fret>0</fret>
     </technical>
     <arpeggiate direction="up"/>
     <tied type="start"/>
    </notations>
   </note>
   <note>
    <pitch>
     <step>C</step>
     <octave>3</octave>
    </pitch>
    <duration>1</duration>
    <tie type="stop"/>
    <tie type="start"/>
    <voice>1</voice>
    <type>quarter</type>
    <stem>up</stem>
    <notations>
     <technical>
      <string>5</string>
      <fret>3</fret>
     </technical>
     <tied type="stop"/>
     <tied type="start"/>
    </notations>
   </note>
   <note>
    <chord/>
    <pitch>
     <step>E</step>
     <octave>3</octave>
    </pitch>
    <duration>1</duration>
    <tie type="stop"/>
    <tie type="start"/>
    <voice>1</voice>
    <type>quarter</type>
    <stem>up</stem>
    <notations>
     <technical>
      <string>4</string>
      <fret>2</fret>
     </technical>
     <tied type="stop"/>
     <tied type="start"/>
    </notations>
   </note>
   <note>
    <chord/>
    <pitch>
     <step>G</step>
     <octave>3</octave>
    </pitch>
    <duration>1</duration>
    <tie type="stop"/>
    <tie type="start"/>
    <voice>1</voice>
    <type>quarter</type>
    <stem>up</stem>
    <notations>
     <technical>
      <string>3</string>
      <fret>0</fret>
     </technical>
     <tied type="stop"/>
     <tied type="start"/>
    </notations>
   </note>
   <note>
    <chord/>
    <pitch>
     <step>C</step>
     <octave>4</octave>
    </pitch>
    <duration>1</duration>
    <tie type="stop"/>
    <tie type="start"/>
    <voice>1</voice>
    <type>quarter</type>
    <stem>up</stem>
    <notations>
     <technical>
      <string>2</string>
      <fret>1</fret>
     </technical>
     <tied type="stop"/>
     <tied type="start"/>
    </notations>
   </note>
   <note>
    <chord/>
    <pitch>
     <step>E</step>
     <octave>4</octave>
    </pitch>
    <duration>1</duration>
    <tie type="stop"/>
    <tie type="start"/>
    <voice>1</voice>
    <type>quarter</type>
    <stem>up</stem>
    <notations>
     <technical>
      <string>1</string>
      <fret>0</fret>
     </technical>
     <tied type="stop"/>
     <tied type="start"/>
    </notations>
   </note>
   <note>
    <pitch>
     <step>C</step>
     <octave>3</octave>
    </pitch>
    <duration>1</duration>
    <tie type="stop"/>
    <voice>1</voice>
    <type>quarter</type>
    <stem>up</stem>
    <notations>
     <technical>
      <string>5</string>
      <fret>3</fret>
     </technical>
     <tied type="stop"/>
    </notations>
   </note>
   <note>
    <chord/>
    <pitch>
     <step>E</step>
     <octave>3</octave>
    </pitch>
    <duration>1</duration>
    <tie type="stop"/>
    <voice>1</voice>
    <type>quarter</type>
    <stem>up</stem>
    <notations>
     <technical>
      <string>4</string>
      <fret>2</fret>
     </technical>
     <tied type="stop"/>
    </notations>
   </note>
   <note>
    <chord/>
    <pitch>
     <step>G</step>
     <octave>3</octave>
    </pitch>
    <duration>1</duration>
    <tie type="stop"/>
    <voice>1</voice>
    <type>quarter</type>
    <stem>up</stem>
    <notations>
     <technical>
      <string>3</string>
      <fret>0</fret>
     </technical>
     <tied type="stop"/>
    </notations>
   </note>
   <note>
    <chord/>
    <pitch>
     <step>C</step>
     <octave>4</octave>
    </pitch>
    <duration>1</duration>
    <tie type="stop"/>
    <voice>1</voice>
    <type>quarter</type>
    <stem>up</stem>
    <notations>
     <technical>
      <string>2</string>
      <fret>1</fret>
     </technical>
     <tied type="stop"/>
    </notations>
   </note>
   <note>
    <chord/>
    <pitch>
     <step>E</step>
     <octave>4</octave>
    </pitch>
    <duration>1</duration>
    <tie type="stop"/>
    <voice>1</voice>
    <type>quarter</type>
    <stem>up</stem>
    <notations>
     <technical>
      <string>1</string>
      <fret>0</fret>
     </technical>
     <tied type="stop"/>
    </notations>
   </note>
  </measure>
  <measure number="8">
   <note>
    <pitch>
     <step>G</step>
     <octave>4</octave>
    </pitch>
    <duration>1</duration>
    <voice>1</voice>
    <type>quarter</type>
    <stem>up</stem>
    <notations>
     <technical>
      <harmonic>
       <natural/>
       <base-pitch/>
      </harmonic>
      <string>3</string>
      <fret>12</fret>
     </technical>
    </notations>
   </note>
   <note>
    <pitch>
     <step>G</step>
     <octave>4</octave>
    </pitch>
    <duration>1</duration>
    <voice>1</voice>
    <type>quarter</type>
    <stem>up</stem>
    <notations>
     <technical>
      <harmonic>
       <natural/>
       <base-pitch/>
      </harmonic>
      <string>3</string>
      <fret>12</fret>
     </technical>
    </notations>
   </note>
   <note>
    <pitch>
     <step>G</step>
     <octave>4</octave>
    </pitch>
    <duration>1</duration>
    <voice>1</voice>
    <type>quarter</type>
    <stem>up</stem>
    <notations>
     <technical>
      <harmonic>
       <natural/>
       <base-pitch/>
      </harmonic>
      <string>3</string>
      <fret>12</fret>
     </technical>
    </notations>
   </note>
  </measure>
  <measure number="9">
   <attributes>
    <divisions>8</divisions>
   </attributes>
   <note>
    <grace slash="yes"/>
    <pitch>
     <step>C</step>
     <octave>4</octave>
    </pitch>
    <voice>1</voice>
    <type>32nd</type>
    <stem>up</stem>
   </note>
   <note>
    <pitch>
     <step>C</step>
     <alter>1</alter>
     <octave>4</octave>
    </pitch>
    <duration>8</duration>
    <voice>1</voice>
    <type>quarter</type>
    <accidental>sharp</accidental>
    <stem>up</stem>
    <notations>
     <technical>
      <hammer-on number="1" type="stop"/>
      <string>2</string>
      <fret>2</fret>
     </technical>
     <slur type="stop"/>
    </notations>
   </note>
   <note>
    <rest/>
    <duration>8</duration>
    <voice>1</voice>
    <type>quarter</type>
   </note>
   <note>
    <rest/>
    <duration>8</duration>
    <voice>1</voice>
    <type>quarter</type>
   </note>
  </measure>
  <measure number="10">
   <attributes>
    <divisions>2</divisions>
   </attributes>
   <harmony>
    <root>
     <root-step>C</root-step>
     <root-alter>0</root-alter>
    </root>
    <kind>major</kind>
    <frame>
     <frame-strings>6</frame-strings>
     <frame-frets>5</frame-frets>
     <first-fret>1</first-fret>
     <frame-note>
      <string>5</string>
      <fret>3</fret>
     </frame-note>
     <frame-note>
      <string>4</string>
      <fret>2</fret>
     </frame-note>
     <frame-note>
      <string>3</string>
      <fret>0</fret>
     </frame-note>
     <frame-note>
      <string>2</string>
      <fret>1</fret>
     </frame-note>
     <frame-note>
      <string>1</string>
      <fret>0</fret>
     </frame-note>
    </frame>
   </harmony>
   <note>
    <pitch>
     <step>C</step>
     <octave>3</octave>
    </pitch>
    <duration>2</duration>
    <tie type="start"/>
    <voice>1</voice>
    <type>quarter</type>
    <stem>up</stem>
    <notations>
     <technical>
      <string>5</string>
      <fret>3</fret>
     </technical>
<?GP7 <root><brush type="down"/></root>?>
     <tied type="start"/>
    </notations>
   </note>
   <note>
    <chord/>
    <pitch>
     <step>E</step>
     <octave>3</octave>
    </pitch>
    <duration>2</duration>
    <tie type="start"/>
    <voice>1</voice>
    <type>quarter</type>
    <stem>up</stem>
    <notations>
     <technical>
      <string>4</string>
      <fret>2</fret>
     </technical>
<?GP7 <root><brush type="down"/></root>?>
     <tied type="start"/>
    </notations>
   </note>
   <note>
    <chord/>
    <pitch>
     <step>G</step>
     <octave>3</octave>
    </pitch>
    <duration>2</duration>
    <tie type="start"/>
    <voice>1</voice>
    <type>quarter</type>
    <stem>up</stem>
    <notations>
     <technical>
      <string>3</string>
      <fret>0</fret>
     </technical>
<?GP7 <root><brush type="down"/></root>?>
     <tied type="start"/>
    </notations>
   </note>
   <note>
    <chord/>
    <pitch>
     <step>C</step>
     <octave>4</octave>
    </pitch>
    <duration>2</duration>
    <tie type="start"/>
    <voice>1</voice>
    <type>quarter</type>
    <stem>up</stem>
    <notations>
     <technical>
      <string>2</string>
      <fret>1</fret>
     </technical>
<?GP7 <root><brush type="down"/></root>?>
     <tied type="start"/>
    </notations>
   </note>
   <note>
    <chord/>
    <pitch>
     <step>E</step>
     <octave>4</octave>
    </pitch>
    <duration>2</duration>
    <tie type="start"/>
    <voice>1</voice>
    <type>quarter</type>
    <stem>up</stem>
    <notations>
     <technical>
      <string>1</string>
      <fret>0</fret>
     </technical>
<?GP7 <root><brush type="down"/></root>?>
     <tied type="start"/>
    </notations>
   </note>
   <note>
    <pitch>
     <step>C</step>
     <octave>3</octave>
    </pitch>
    <duration>2</duration>
    <tie type="stop"/>
    <tie type="start"/>
    <voice>1</voice>
    <type>quarter</type>
    <stem>up</stem>
    <notations>
     <technical>
      <string>5</string>
      <fret>3</fret>
     </technical>
     <tied type="stop"/>
     <tied type="start"/>
    </notations>
   </note>
   <note>
    <chord/>
    <pitch>
     <step>E</step>
     <octave>3</octave>
    </pitch>
    <duration>2</duration>
    <tie type="stop"/>
    <tie type="start"/>
    <voice>1</voice>
    <type>quarter</type>
    <stem>up</stem>
    <notations>
     <technical>
      <string>4</string>
      <fret>2</fret>
     </technical>
     <tied type="stop"/>
     <tied type="start"/>
    </notations>
   </note>
   <note>
    <chord/>
    <pitch>
     <step>G</step>
     <octave>3</octave>
    </pitch>
    <duration>2</duration>
    <tie type="stop"/>
    <tie type="start"/>
    <voice>1</voice>
    <type>quarter</type>
    <stem>up</stem>
    <notations>
     <technical>
      <string>3</string>
      <fret>0</fret>
     </technical>
     <tied type="stop"/>
     <tied type="start"/>
    </notations>
   </note>
   <note>
    <chord/>
    <pitch>
     <step>C</step>
     <octave>4</octave>
    </pitch>
    <duration>2</duration>
    <tie type="stop"/>
    <tie type="start"/>
    <voice>1</voice>
    <type>quarter</type>
    <stem>up</stem>
    <notations>
     <technical>
      <string>2</string>
      <fret>1</fret>
     </technical>
     <tied type="stop"/>
     <tied type="start"/>
    </notations>
   </note>
   <note>
    <chord/>
    <pitch>
     <step>E</step>
     <octave>4</octave>
    </pitch>
    <duration>2</duration>
    <tie type="stop"/>
    <tie type="start"/>
    <voice>1</voice>
    <type>quarter</type>
    <stem>up</stem>
    <notations>
     <technical>
      <string>1</string>
      <fret>0</fret>
     </technical>
     <tied type="stop"/>
     <tied type="start"/>
    </notations>
   </note>
   <note>
    <pitch>
     <step>C</step>
     <octave>3</octave>
    </pitch>
    <duration>1</duration>
    <tie type="stop"/>
    <voice>1</voice>
    <type>eighth</type>
    <stem>up</stem>
    <beam number="1">begin</beam>
    <notations>
     <technical>
      <string>5</string>
      <fret>3</fret>
     </technical>
     <tied type="stop"/>
    </notations>
   </note>
   <note>
    <chord/>
    <pitch>
     <step>E</step>
     <octave>3</octave>
    </pitch>
    <duration>1</duration>
    <tie type="stop"/>
    <voice>1</voice>
    <type>eighth</type>
    <stem>up</stem>
    <beam number="1">begin</beam>
    <notations>
     <technical>
      <string>4</string>
      <fret>2</fret>
     </technical>
     <tied type="stop"/>
    </notations>
   </note>
   <note>
    <chord/>
    <pitch>
     <step>G</step>
     <octave>3</octave>
    </pitch>
    <duration>1</duration>
    <tie type="stop"/>
    <voice>1</voice>
    <type>eighth</type>
    <stem>up</stem>
    <beam number="1">begin</beam>
    <notations>
     <technical>
      <string>3</string>
      <fret>0</fret>
     </technical>
     <tied type="stop"/>
    </notations>
   </note>
   <note>
    <chord/>
    <pitch>
     <step>C</step>
     <octave>4</octave>
    </pitch>
    <duration>1</duration>
    <tie type="stop"/>
    <voice>1</voice>
    <type>eighth</type>
    <stem>up</stem>
    <beam number="1">begin</beam>
    <notations>
     <technical>
      <string>2</string>
      <fret>1</fret>
     </technical>
     <tied type="stop"/>
    </notations>
   </note>
   <note>
    <chord/>
    <pitch>
     <step>E</step>
     <octave>4</octave>
    </pitch>
    <duration>1</duration>
    <tie type="stop"/>
    <voice>1</voice>
    <type>eighth</type>
    <stem>up</stem>
    <beam number="1">begin</beam>
    <notations>
     <technical>
      <string>1</string>
      <fret>0</fret>
     </technical>
     <tied type="stop"/>
    </notations>
   </note>
   <harmony>
    <root>
     <root-step>A</root-step>
     <root-alter>0</root-alter>
    </root>
    <kind>suspended-second</kind>
    <frame>
     <frame-strings>6</frame-strings>
     <frame-frets>5</frame-frets>
     <first-fret>2</first-fret>
     <frame-note>
      <string>5</string>
      <fret>0</fret>
     </frame-note>
     <frame-note>
      <string>4</string>
      <fret>2</fret>
     </frame-note>
     <frame-note>
      <string>3</string>
      <fret>2</fret>
     </frame-note>
     <frame-note>
      <string>2</string>
      <fret>0</fret>
     </frame-note>
     <frame-note>
      <string>1</string>
      <fret>0</fret>
     </frame-note>
    </frame>
   </harmony>
   <note>
    <pitch>
     <step>A</step>
     <octave>2</octave>
    </pitch>
    <duration>1</duration>
    <tie type="start"/>
    <voice>1</voice>
    <type>eighth</type>
    <stem>up</stem>
    <beam number="1">end</beam>
    <notations>
     <technical>
      <string>5</string>
      <fret>0</fret>
     </technical>
<?GP7 <root><brush type="down"/></root>?>
     <tied type="start"/>
    </notations>
   </note>
   <note>
    <chord/>
    <pitch>
     <step>E</step>
     <octave>3</octave>
    </pitch>
    <duration>1</duration>
    <tie type="start"/>
    <voice>1</voice>
    <type>eighth</type>
    <stem>up</stem>
    <beam number="1">end</beam>
    <notations>
     <technical>
      <string>4</string>
      <fret>2</fret>
     </technical>
<?GP7 <root><brush type="down"/></root>?>
     <tied type="start"/>
    </notations>
   </note>
   <note>
    <chord/>
    <pitch>
     <step>A</step>
     <octave>3</octave>
    </pitch>
    <duration>1</duration>
    <tie type="start"/>
    <voice>1</voice>
    <type>eighth</type>
    <stem>up</stem>
    <beam number="1">end</beam>
    <notations>
     <technical>
      <string>3</string>
      <fret>2</fret>
     </technical>
<?GP7 <root><brush type="down"/></root>?>
     <tied type="start"/>
    </notations>
   </note>
   <note>
    <chord/>
    <pitch>
     <step>B</step>
     <octave>3</octave>
    </pitch>
    <duration>1</duration>
    <tie type="start"/>
    <voice>1</voice>
    <type>eighth</type>
    <stem>up</stem>
    <beam number="1">end</beam>
    <notations>
     <technical>
      <string>2</string>
      <fret>0</fret>
     </technical>
<?GP7 <root><brush type="down"/></root>?>
     <tied type="start"/>
    </notations>
   </note>
   <note>
    <chord/>
    <pitch>
     <step>E</step>
     <octave>4</octave>
    </pitch>
    <duration>1</duration>
    <tie type="start"/>
    <voice>1</voice>
    <type>eighth</type>
    <stem>up</stem>
    <beam number="1">end</beam>
    <notations>
     <technical>
      <string>1</string>
      <fret>0</fret>
     </technical>
<?GP7 <root><brush type="down"/></root>?>
     <tied type="start"/>
    </notations>
   </note>
  </measure>
  <measure number="11">
   <attributes>
    <divisions>1</divisions>
   </attributes>
   <harmony>
    <root>
     <root-step>A</root-step>
     <root-alter>0</root-alter>
    </root>
    <kind>suspended-second</kind>
    <frame>
     <frame-strings>6</frame-strings>
     <frame-frets>5</frame-frets>
     <first-fret>2</first-fret>
     <frame-note>
      <string>5</string>
      <fret>0</fret>
     </frame-note>
     <frame-note>
      <string>4</string>
      <fret>2</fret>
     </frame-note>
     <frame-note>
      <string>3</string>
      <fret>2</fret>
     </frame-note>
     <frame-note>
      <string>2</string>
      <fret>0</fret>
     </frame-note>
     <frame-note>
      <string>1</string>
      <fret>0</fret>
     </frame-note>
    </frame>
   </harmony>
   <note>
    <pitch>
     <step>A</step>
     <octave>2</octave>
    </pitch>
    <duration>1</duration>
    <tie type="stop"/>
    <tie type="start"/>
    <voice>1</voice>
    <type>quarter</type>
    <stem>up</stem>
    <notations>
     <technical>
      <string>5</string>
      <fret>0</fret>
     </technical>
<?GP7 <root><brush type="down"/></root>?>
     <tied type="stop"/>
     <tied type="start"/>
    </notations>
   </note>
   <note>
    <chord/>
    <pitch>
     <step>E</step>
     <octave>3</octave>
    </pitch>
    <duration>1</duration>
    <tie type="stop"/>
    <tie type="start"/>
    <voice>1</voice>
    <type>quarter</type>
    <stem>up</stem>
    <notations>
     <technical>
      <string>4</string>
      <fret>2</fret>
     </technical>
<?GP7 <root><brush type="down"/></root>?>
     <tied type="stop"/>
     <tied type="start"/>
    </notations>
   </note>
   <note>
    <chord/>
    <pitch>
     <step>A</step>
     <octave>3</octave>
    </pitch>
    <duration>1</duration>
    <tie type="stop"/>
    <tie type="start"/>
    <voice>1</voice>
    <type>quarter</type>
    <stem>up</stem>
    <notations>
     <technical>
      <string>3</string>
      <fret>2</fret>
     </technical>
<?GP7 <root><brush type="down"/></root>?>
     <tied type="stop"/>
     <tied type="start"/>
    </notations>
   </note>
   <note>
    <chord/>
    <pitch>
     <step>B</step>
     <octave>3</octave>
    </pitch>
    <duration>1</duration>
    <tie type="stop"/>
    <tie type="start"/>
    <voice>1</voice>
    <type>quarter</type>
    <stem>up</stem>
    <notations>
     <technical>
      <string>2</string>
      <fret>0</fret>
     </technical>
<?GP7 <root><brush type="down"/></root>?>
     <tied type="stop"/>
     <tied type="start"/>
    </notations>
   </note>
   <note>
    <chord/>
    <pitch>
     <step>E</step>
     <octave>4</octave>
    </pitch>
    <duration>1</duration>
    <tie type="stop"/>
    <tie type="start"/>
    <voice>1</voice>
    <type>quarter</type>
    <stem>up</stem>
    <notations>
     <technical>
      <string>1</string>
      <fret>0</fret>
     </technical>
<?GP7 <root><brush type="down"/></root>?>
     <tied type="stop"/>
     <tied type="start"/>
    </notations>
   </note>
   <note>
    <pitch>
     <step>A</step>
     <octave>2</octave>
    </pitch>
    <duration>1</duration>
    <tie type="stop"/>
    <tie type="start"/>
    <voice>1</voice>
    <type>quarter</type>
    <stem>up</stem>
    <notations>
     <technical>
      <string>5</string>
      <fret>0</fret>
     </technical>
     <tied type="stop"/>
     <tied type="start"/>
    </notations>
   </note>
   <note>
    <chord/>
    <pitch>
     <step>E</step>
     <octave>3</octave>
    </pitch>
    <duration>1</duration>
    <tie type="stop"/>
    <tie type="start"/>
    <voice>1</voice>
    <type>quarter</type>
    <stem>up</stem>
    <notations>
     <technical>
      <string>4</string>
      <fret>2</fret>
     </technical>
     <tied type="stop"/>
     <tied type="start"/>
    </notations>
   </note>
   <note>
    <chord/>
    <pitch>
     <step>A</step>
     <octave>3</octave>
    </pitch>
    <duration>1</duration>
    <tie type="stop"/>
    <tie type="start"/>
    <voice>1</voice>
    <type>quarter</type>
    <stem>up</stem>
    <notations>
     <technical>
      <string>3</string>
      <fret>2</fret>
     </technical>
     <tied type="stop"/>
     <tied type="start"/>
    </notations>
   </note>
   <note>
    <chord/>
    <pitch>
     <step>B</step>
     <octave>3</octave>
    </pitch>
    <duration>1</duration>
    <tie type="stop"/>
    <tie type="start"/>
    <voice>1</voice>
    <type>quarter</type>
    <stem>up</stem>
    <notations>
     <technical>
      <string>2</string>
      <fret>0</fret>
     </technical>
     <tied type="stop"/>
     <tied type="start"/>
    </notations>
   </note>
   <note>
    <chord/>
    <pitch>
     <step>E</step>
     <octave>4</octave>
    </pitch>
    <duration>1</duration>
    <tie type="stop"/>
    <tie type="start"/>
    <voice>1</voice>
    <type>quarter</type>
    <stem>up</stem>
    <notations>
     <technical>
      <string>1</string>
      <fret>0</fret>
     </technical>
     <tied type="stop"/>
     <tied type="start"/>
    </notations>
   </note>
   <note>
    <pitch>
     <step>A</step>
     <octave>2</octave>
    </pitch>
    <duration>1</duration>
    <tie type="stop"/>
    <voice>1</voice>
    <type>quarter</type>
    <stem>up</stem>
    <notations>
     <technical>
      <string>5</string>
      <fret>0</fret>
     </technical>
     <tied type="stop"/>
    </notations>
   </note>
   <note>
    <chord/>
    <pitch>
     <step>E</step>
     <octave>3</octave>
    </pitch>
    <duration>1</duration>
    <tie type="stop"/>
    <voice>1</voice>
    <type>quarter</type>
    <stem>up</stem>
    <notations>
     <technical>
      <string>4</string>
      <fret>2</fret>
     </technical>
     <tied type="stop"/>
    </notations>
   </note>
   <note>
    <chord/>
    <pitch>
     <step>A</step>
     <octave>3</octave>
    </pitch>
    <duration>1</duration>
    <tie type="stop"/>
    <voice>1</voice>
    <type>quarter</type>
    <stem>up</stem>
    <notations>
     <technical>
      <string>3</string>
      <fret>2</fret>
     </technical>
     <tied type="stop"/>
    </notations>
   </note>
   <note>
    <chord/>
    <pitch>
     <step>B</step>
     <octave>3</octave>
    </pitch>
    <duration>1</duration>
    <tie type="stop"/>
    <voice>1</voice>
    <type>quarter</type>
    <stem>up</stem>
    <notations>
     <technical>
      <string>2</string>
      <fret>0</fret>
     </technical>
     <tied type="stop"/>
    </notations>
   </note>
   <note>
    <chord/>
    <pitch>
     <step>E</step>
     <octave>4</octave>
    </pitch>
    <duration>1</duration>
    <tie type="stop"/>
    <voice>1</voice>
    <type>quarter</type>
    <stem>up</stem>
    <notations>
     <technical>
      <string>1</string>
      <fret>0</fret>
     </technical>
     <tied type="stop"/>
    </notations>
   </note>
  </measure>
  <measure number="12">
   <attributes>
    <divisions>2</divisions>
   </attributes>
   <harmony>
    <root>
     <root-step>C</root-step>
     <root-alter>0</root-alter>
    </root>
    <kind>major</kind>
    <frame>
     <frame-strings>6</frame-strings>
     <frame-frets>5</frame-frets>
     <first-fret>1</first-fret>
     <frame-note>
      <string>5</string>
      <fret>3</fret>
     </frame-note>
     <frame-note>
      <string>4</string>
      <fret>2</fret>
     </frame-note>
     <frame-note>
      <string>3</string>
      <fret>0</fret>
     </frame-note>
     <frame-note>
      <string>2</string>
      <fret>1</fret>
     </frame-note>
     <frame-note>
      <string>1</string>
      <fret>0</fret>
     </frame-note>
    </frame>
   </harmony>
   <note>
    <pitch>
     <step>C</step>
     <octave>3</octave>
    </pitch>
    <duration>2</duration>
    <tie type="start"/>
    <voice>1</voice>
    <type>quarter</type>
    <stem>up</stem>
    <notations>
     <technical>
      <string>5</string>
      <fret>3</fret>
     </technical>
     <arpeggiate direction="up"/>
     <tied type="start"/>
    </notations>
   </note>
   <note>
    <chord/>
    <pitch>
     <step>E</step>
     <octave>3</octave>
    </pitch>
    <duration>2</duration>
    <tie type="start"/>
    <voice>1</voice>
    <type>quarter</type>
    <stem>up</stem>
    <notations>
     <technical>
      <string>4</string>
      <fret>2</fret>
     </technical>
     <arpeggiate direction="up"/>
     <tied type="start"/>
    </notations>
   </note>
   <note>
    <chord/>
    <pitch>
     <step>G</step>
     <octave>3</octave>
    </pitch>
    <duration>2</duration>
    <tie type="start"/>
    <voice>1</voice>
    <type>quarter</type>
    <stem>up</stem>
    <notations>
     <technical>
      <string>3</string>
      <fret>0</fret>
     </technical>
     <arpeggiate direction="up"/>
     <tied type="start"/>
    </notations>
   </note>
   <note>
    <chord/>
    <pitch>
     <step>C</step>
     <octave>4</octave>
    </pitch>
    <duration>2</duration>
    <tie type="start"/>
    <voice>1</voice>
    <type>quarter</type>
    <stem>up</stem>
    <notations>
     <technical>
      <string>2</string>
      <fret>1</fret>
     </technical>
     <arpeggiate direction="up"/>
     <tied type="start"/>
    </notations>
   </note>
   <note>
    <chord/>
    <pitch>
     <step>E</step>
     <octave>4</octave>
    </pitch>
    <duration>2</duration>
    <tie type="start"/>
    <voice>1</voice>
    <type>quarter</type>
    <stem>up</stem>
    <notations>
     <technical>
      <string>1</string>
      <fret>0</fret>
     </technical>
     <arpeggiate direction="up"/>
     <tied type="start"/>
    </notations>
   </note>
   <note>
    <pitch>
     <step>C</step>
     <octave>3</octave>
    </pitch>
    <duration>2</duration>
    <tie type="stop"/>
    <tie type="start"/>
    <voice>1</voice>
    <type>quarter</type>
    <stem>up</stem>
    <notations>
     <technical>
      <string>5</string>
      <fret>3</fret>
     </technical>
     <tied type="stop"/>
     <tied type="start"/>
    </notations>
   </note>
   <note>
    <chord/>
    <pitch>
     <step>E</step>
     <octave>3</octave>
    </pitch>
    <duration>2</duration>
    <tie type="stop"/>
    <tie type="start"/>
    <voice>1</voice>
    <type>quarter</type>
    <stem>up</stem>
    <notations>
     <technical>
      <string>4</string>
      <fret>2</fret>
     </technical>
     <tied type="stop"/>
     <tied type="start"/>
    </notations>
   </note>
   <note>
    <chord/>
    <pitch>
     <step>G</step>
     <octave>3</octave>
    </pitch>
    <duration>2</duration>
    <tie type="stop"/>
    <tie type="start"/>
    <voice>1</voice>
    <type>quarter</type>
    <stem>up</stem>
    <notations>
     <technical>
      <string>3</string>
      <fret>0</fret>
     </technical>
     <tied type="stop"/>
     <tied type="start"/>
    </notations>
   </note>
   <note>
    <chord/>
    <pitch>
     <step>C</step>
     <octave>4</octave>
    </pitch>
    <duration>2</duration>
    <tie type="stop"/>
    <tie type="start"/>
    <voice>1</voice>
    <type>quarter</type>
    <stem>up</stem>
    <notations>
     <technical>
      <string>2</string>
      <fret>1</fret>
     </technical>
     <tied type="stop"/>
     <tied type="start"/>
    </notations>
   </note>
   <note>
    <chord/>
    <pitch>
     <step>E</step>
     <octave>4</octave>
    </pitch>
    <duration>2</duration>
    <tie type="stop"/>
    <tie type="start"/>
    <voice>1</voice>
    <type>quarter</type>
    <stem>up</stem>
    <notations>
     <technical>
      <string>1</string>
      <fret>0</fret>
     </technical>
     <tied type="stop"/>
     <tied type="start"/>
    </notations>
   </note>
   <note>
    <pitch>
     <step>C</step>
     <octave>3</octave>
    </pitch>
    <duration>1</duration>
    <tie type="stop"/>
    <voice>1</voice>
    <type>eighth</type>
    <stem>up</stem>
    <beam number="1">begin</beam>
    <notations>
     <technical>
      <string>5</string>
      <fret>3</fret>
     </technical>
     <tied type="stop"/>
    </notations>
   </note>
   <note>
    <chord/>
    <pitch>
     <step>E</step>
     <octave>3</octave>
    </pitch>
    <duration>1</duration>
    <tie type="stop"/>
    <voice>1</voice>
    <type>eighth</type>
    <stem>up</stem>
    <beam number="1">begin</beam>
    <notations>
     <technical>
      <string>4</string>
      <fret>2</fret>
     </technical>
     <tied type="stop"/>
    </notations>
   </note>
   <note>
    <chord/>
    <pitch>
     <step>G</step>
     <octave>3</octave>
    </pitch>
    <duration>1</duration>
    <tie type="stop"/>
    <voice>1</voice>
    <type>eighth</type>
    <stem>up</stem>
    <beam number="1">begin</beam>
    <notations>
     <technical>
      <string>3</string>
      <fret>0</fret>
     </technical>
     <tied type="stop"/>
    </notations>
   </note>
   <note>
    <chord/>
    <pitch>
     <step>C</step>
     <octave>4</octave>
    </pitch>
    <duration>1</duration>
    <tie type="stop"/>
    <voice>1</voice>
    <type>eighth</type>
    <stem>up</stem>
    <beam number="1">begin</beam>
    <notations>
     <technical>
      <string>2</string>
      <fret>1</fret>
     </technical>
     <tied type="stop"/>
    </notations>
   </note>
   <note>
    <chord/>
    <pitch>
     <step>E</step>
     <octave>4</octave>
    </pitch>
    <duration>1</duration>
    <tie type="stop"/>
    <voice>1</voice>
    <type>eighth</type>
    <stem>up</stem>
    <beam number="1">begin</beam>
    <notations>
     <technical>
      <string>1</string>
      <fret>0</fret>
     </technical>
     <tied type="stop"/>
    </notations>
   </note>
   <harmony>
    <root>
     <root-step>A</root-step>
     <root-alter>0</root-alter>
    </root>
    <kind>suspended-second</kind>
    <frame>
     <frame-strings>6</frame-strings>
     <frame-frets>5</frame-frets>
     <first-fret>2</first-fret>
     <frame-note>
      <string>5</string>
      <fret>0</fret>
     </frame-note>
     <frame-note>
      <string>4</string>
      <fret>2</fret>
     </frame-note>
     <frame-note>
      <string>3</string>
      <fret>2</fret>
     </frame-note>
     <frame-note>
      <string>2</string>
      <fret>0</fret>
     </frame-note>
     <frame-note>
      <string>1</string>
      <fret>0</fret>
     </frame-note>
    </frame>
   </harmony>
   <note>
    <pitch>
     <step>A</step>
     <octave>2</octave>
    </pitch>
    <duration>1</duration>
    <voice>1</voice>
    <type>eighth</type>
    <stem>up</stem>
    <beam number="1">end</beam>
    <notations>
     <technical>
      <string>5</string>
      <fret>0</fret>
     </technical>
     <arpeggiate direction="up"/>
    </notations>
   </note>
   <note>
    <chord/>
    <pitch>
     <step>E</step>
     <octave>3</octave>
    </pitch>
    <duration>1</duration>
    <voice>1</voice>
    <type>eighth</type>
    <stem>up</stem>
    <beam number="1">end</beam>
    <notations>
     <technical>
      <string>4</string>
      <fret>2</fret>
     </technical>
     <arpeggiate direction="up"/>
    </notations>
   </note>
   <note>
    <chord/>
    <pitch>
     <step>A</step>
     <octave>3</octave>
    </pitch>
    <duration>1</duration>
    <voice>1</voice>
    <type>eighth</type>
    <stem>up</stem>
    <beam number="1">end</beam>
    <notations>
     <technical>
      <string>3</string>
      <fret>2</fret>
     </technical>
     <arpeggiate direction="up"/>
    </notations>
   </note>
   <note>
    <chord/>
    <pitch>
     <step>B</step>
     <octave>3</octave>
    </pitch>
    <duration>1</duration>
    <voice>1</voice>
    <type>eighth</type>
    <stem>up</stem>
    <beam number="1">end</beam>
    <notations>
     <technical>
      <string>2</string>
      <fret>0</fret>
     </technical>
     <arpeggiate direction="up"/>
    </notations>
   </note>
   <note>
    <chord/>
    <pitch>
     <step>E</step>
     <octave>4</octave>
    </pitch>
    <duration>1</duration>
    <voice>1</voice>
    <type>eighth</type>
    <stem>up</stem>
    <beam number="1">end</beam>
    <notations>
     <technical>
      <string>1</string>
      <fret>0</fret>
     </technical>
     <arpeggiate direction="up"/>
    </notations>
   </note>
  </measure>
  <measure number="13">
   <attributes>
    <divisions>1</divisions>
   </attributes>
   <harmony>
    <root>
     <root-step>A</root-step>
     <root-alter>0</root-alter>
    </root>
    <kind>suspended-second</kind>
    <frame>
     <frame-strings>6</frame-strings>
     <frame-frets>5</frame-frets>
     <first-fret>2</first-fret>
     <frame-note>
      <string>5</string>
      <fret>0</fret>
     </frame-note>
     <frame-note>
      <string>4</string>
      <fret>2</fret>
     </frame-note>
     <frame-note>
      <string>3</string>
      <fret>2</fret>
     </frame-note>
     <frame-note>
      <string>2</string>
      <fret>0</fret>
     </frame-note>
     <frame-note>
      <string>1</string>
      <fret>0</fret>
     </frame-note>
    </frame>
   </harmony>
   <note>
    <pitch>
     <step>A</step>
     <octave>2</octave>
    </pitch>
    <duration>1</duration>
    <tie type="start"/>
    <voice>1</voice>
    <type>quarter</type>
    <stem>up</stem>
    <notations>
     <technical>
      <string>5</string>
      <fret>0</fret>
     </technical>
     <arpeggiate direction="up"/>
     <tied type="start"/>
    </notations>
   </note>
   <note>
    <chord/>
    <pitch>
     <step>E</step>
     <octave>3</octave>
    </pitch>
    <duration>1</duration>
    <tie type="start"/>
    <voice>1</voice>
    <type>quarter</type>
    <stem>up</stem>
    <notations>
     <technical>
      <string>4</string>
      <fret>2</fret>
     </technical>
     <arpeggiate direction="up"/>
     <tied type="start"/>
    </notations>
   </note>
   <note>
    <chord/>
    <pitch>
     <step>A</step>
     <octave>3</octave>
    </pitch>
    <duration>1</duration>
    <tie type="start"/>
    <voice>1</voice>
    <type>quarter</type>
    <stem>up</stem>
    <notations>
     <technical>
      <string>3</string>
      <fret>2</fret>
     </technical>
     <arpeggiate direction="up"/>
     <tied type="start"/>
    </notations>
   </note>
   <note>
    <chord/>
    <pitch>
     <step>B</step>
     <octave>3</octave>
    </pitch>
    <duration>1</duration>
    <tie type="start"/>
    <voice>1</voice>
    <type>quarter</type>
    <stem>up</stem>
    <notations>
     <technical>
      <string>2</string>
      <fret>0</fret>
     </technical>
     <arpeggiate direction="up"/>
     <tied type="start"/>
    </notations>
   </note>
   <note>
    <chord/>
    <pitch>
     <step>E</step>
     <octave>4</octave>
    </pitch>
    <duration>1</duration>
    <tie type="start"/>
    <voice>1</voice>
    <type>quarter</type>
    <stem>up</stem>
    <notations>
     <technical>
      <string>1</string>
      <fret>0</fret>
     </technical>
     <arpeggiate direction="up"/>
     <tied type="start"/>
    </notations>
   </note>
   <note>
    <pitch>
     <step>A</step>
     <octave>2</octave>
    </pitch>
    <duration>1</duration>
    <tie type="stop"/>
    <tie type="start"/>
    <voice>1</voice>
    <type>quarter</type>
    <stem>up</stem>
    <notations>
     <technical>
      <string>5</string>
      <fret>0</fret>
     </technical>
     <tied type="stop"/>
     <tied type="start"/>
    </notations>
   </note>
   <note>
    <chord/>
    <pitch>
     <step>E</step>
     <octave>3</octave>
    </pitch>
    <duration>1</duration>
    <tie type="stop"/>
    <tie type="start"/>
    <voice>1</voice>
    <type>quarter</type>
    <stem>up</stem>
    <notations>
     <technical>
      <string>4</string>
      <fret>2</fret>
     </technical>
     <tied type="stop"/>
     <tied type="start"/>
    </notations>
   </note>
   <note>
    <chord/>
    <pitch>
     <step>A</step>
     <octave>3</octave>
    </pitch>
    <duration>1</duration>
    <tie type="stop"/>
    <tie type="start"/>
    <voice>1</voice>
    <type>quarter</type>
    <stem>up</stem>
    <notations>
     <technical>
      <string>3</string>
      <fret>2</fret>
     </technical>
     <tied type="stop"/>
     <tied type="start"/>
    </notations>
   </note>
   <note>
    <chord/>
    <pitch>
     <step>B</step>
     <octave>3</octave>
    </pitch>
    <duration>1</duration>
    <tie type="stop"/>
    <tie type="start"/>
    <voice>1</voice>
    <type>quarter</type>
    <stem>up</stem>
    <notations>
     <technical>
      <string>2</string>
      <fret>0</fret>
     </technical>
     <tied type="stop"/>
     <tied type="start"/>
    </notations>
   </note>
   <note>
    <chord/>
    <pitch>
     <step>E</step>
     <octave>4</octave>
    </pitch>
    <duration>1</duration>
    <tie type="stop"/>
    <tie type="start"/>
    <voice>1</voice>
    <type>quarter</type>
    <stem>up</stem>
    <notations>
     <technical>
      <string>1</string>
      <fret>0</fret>
     </technical>
     <tied type="stop"/>
     <tied type="start"/>
    </notations>
   </note>
   <note>
    <pitch>
     <step>A</step>
     <octave>2</octave>
    </pitch>
    <duration>1</duration>
    <tie type="stop"/>
    <voice>1</voice>
    <type>quarter</type>
    <stem>up</stem>
    <notations>
     <technical>
      <string>5</string>
      <fret>0</fret>
     </technical>
     <tied type="stop"/>
    </notations>
   </note>
   <note>
    <chord/>
    <pitch>
     <step>E</step>
     <octave>3</octave>
    </pitch>
    <duration>1</duration>
    <tie type="stop"/>
    <voice>1</voice>
    <type>quarter</type>
    <stem>up</stem>
    <notations>
     <technical>
      <string>4</string>
      <fret>2</fret>
     </technical>
     <tied type="stop"/>
    </notations>
   </note>
   <note>
    <chord/>
    <pitch>
     <step>A</step>
     <octave>3</octave>
    </pitch>
    <duration>1</duration>
    <tie type="stop"/>
    <voice>1</voice>
    <type>quarter</type>
    <stem>up</stem>
    <notations>
     <technical>
      <string>3</string>
      <fret>2</fret>
     </technical>
     <tied type="stop"/>
    </notations>
   </note>
   <note>
    <chord/>
    <pitch>
     <step>B</step>
     <octave>3</octave>
    </pitch>
    <duration>1</duration>
    <tie type="stop"/>
    <voice>1</voice>
    <type>quarter</type>
    <stem>up</stem>
    <notations>
     <technical>
      <string>2</string>
      <fret>0</fret>
     </technical>
     <tied type="stop"/>
    </notations>
   </note>
   <note>
    <chord/>
    <pitch>
     <step>E</step>
     <octave>4</octave>
    </pitch>
    <duration>1</duration>
    <tie type="stop"/>
    <voice>1</voice>
    <type>quarter</type>
    <stem>up</stem>
    <notations>
     <technical>
      <string>1</string>
      <fret>0</fret>
     </technical>
     <tied type="stop"/>
    </notations>
   </note>
  </measure>
  <measure number="14">
   <note>
    <rest/>
    <duration>1</duration>
    <voice>1</voice>
    <type>quarter</type>
   </note>
   <note>
    <rest/>
    <duration>1</duration>
    <voice>1</voice>
    <type>quarter</type>
   </note>
   <note>
    <pitch>
     <step>C</step>
     <octave>4</octave>
    </pitch>
    <duration>1</duration>
    <voice>1</voice>
    <type>quarter</type>
    <stem>up</stem>
    <notations>
     <technical>
      <string>2</string>
      <fret>1</fret>
     </technical>
     <slur type="start"/>
     <slide number="5" type="start"/>
    </notations>
   </note>
  </measure>
  <measure number="15">
   <note>
    <pitch>
     <step>D</step>
     <octave>4</octave>
    </pitch>
    <duration>1</duration>
    <voice>1</voice>
    <type>quarter</type>
    <stem>up</stem>
    <notations>
     <technical>
      <string>2</string>
      <fret>3</fret>
     </technical>
     <slur type="stop"/>
     <slide number="5" type="stop"/>
    </notations>
   </note>
   <note>
    <rest/>
    <duration>1</duration>
    <voice>1</voice>
    <type>quarter</type>
   </note>
   <harmony>
    <root>
     <root-step>C</root-step>
     <root-alter>0</root-alter>
    </root>
    <kind>major</kind>
    <frame>
     <frame-strings>6</frame-strings>
     <frame-frets>5</frame-frets>
     <first-fret>1</first-fret>
     <frame-note>
      <string>5</string>
      <fret>3</fret>
     </frame-note>
     <frame-note>
      <string>4</string>
      <fret>2</fret>
     </frame-note>
     <frame-note>
      <string>3</string>
      <fret>0</fret>
     </frame-note>
     <frame-note>
      <string>2</string>
      <fret>1</fret>
     </frame-note>
     <frame-note>
      <string>1</string>
      <fret>0</fret>
     </frame-note>
    </frame>
   </harmony>
   <note>
    <pitch>
     <step>C</step>
     <octave>3</octave>
    </pitch>
    <duration>1</duration>
    <tie type="start"/>
    <voice>1</voice>
    <type>quarter</type>
    <stem>up</stem>
    <notations>
     <technical>
      <string>5</string>
      <fret>3</fret>
     </technical>
     <arpeggiate direction="up"/>
     <tied type="start"/>
    </notations>
   </note>
   <note>
    <chord/>
    <pitch>
     <step>E</step>
     <octave>3</octave>
    </pitch>
    <duration>1</duration>
    <tie type="start"/>
    <voice>1</voice>
    <type>quarter</type>
    <stem>up</stem>
    <notations>
     <technical>
      <string>4</string>
      <fret>2</fret>
     </technical>
     <arpeggiate direction="up"/>
     <tied type="start"/>
    </notations>
   </note>
   <note>
    <chord/>
    <pitch>
     <step>G</step>
     <octave>3</octave>
    </pitch>
    <duration>1</duration>
    <tie type="start"/>
    <voice>1</voice>
    <type>quarter</type>
    <stem>up</stem>
    <notations>
     <technical>
      <string>3</string>
      <fret>0</fret>
     </technical>
     <arpeggiate direction="up"/>
     <tied type="start"/>
    </notations>
   </note>
   <note>
    <chord/>
    <pitch>
     <step>C</step>
     <octave>4</octave>
    </pitch>
    <duration>1</duration>
    <tie type="start"/>
    <voice>1</voice>
    <type>quarter</type>
    <stem>up</stem>
    <notations>
     <technical>
      <string>2</string>
      <fret>1</fret>
     </technical>
     <arpeggiate direction="up"/>
     <tied type="start"/>
    </notations>
   </note>
   <note>
    <chord/>
    <pitch>
     <step>E</step>
     <octave>4</octave>
    </pitch>
    <duration>1</duration>
    <tie type="start"/>
    <voice>1</voice>
    <type>quarter</type>
    <stem>up</stem>
    <notations>
     <technical>
      <string>1</string>
      <fret>0</fret>
     </technical>
     <arpeggiate direction="up"/>
     <tied type="start"/>
    </notations>
   </note>
  </measure>
  <measure number="16">
   <harmony>
    <root>
     <root-step>C</root-step>
     <root-alter>0</root-alter>
    </root>
    <kind>major</kind>
    <frame>
     <frame-strings>6</frame-strings>
     <frame-frets>5</frame-frets>
     <first-fret>1</first-fret>
     <frame-note>
      <string>5</string>
      <fret>3</fret>
     </frame-note>
     <frame-note>
      <string>4</string>
      <fret>2</fret>
     </frame-note>
     <frame-note>
      <string>3</string>
      <fret>0</fret>
     </frame-note>
     <frame-note>
      <string>2</string>
      <fret>1</fret>
     </frame-note>
     <frame-note>
      <string>1</string>
      <fret>0</fret>
     </frame-note>
    </frame>
   </harmony>
   <note>
    <pitch>
     <step>C</step>
     <octave>3</octave>
    </pitch>
    <duration>1</duration>
    <tie type="stop"/>
    <tie type="start"/>
    <voice>1</voice>
    <type>quarter</type>
    <stem>up</stem>
    <notations>
     <technical>
      <string>5</string>
      <fret>3</fret>
     </technical>
     <tied type="stop"/>
     <tied type="start"/>
    </notations>
   </note>
   <note>
    <chord/>
    <pitch>
     <step>E</step>
     <octave>3</octave>
    </pitch>
    <duration>1</duration>
    <tie type="stop"/>
    <tie type="start"/>
    <voice>1</voice>
    <type>quarter</type>
    <stem>up</stem>
    <notations>
     <technical>
      <string>4</string>
      <fret>2</fret>
     </technical>
     <tied type="stop"/>
     <tied type="start"/>
    </notations>
   </note>
   <note>
    <chord/>
    <pitch>
     <step>G</step>
     <octave>3</octave>
    </pitch>
    <duration>1</duration>
    <tie type="stop"/>
    <tie type="start"/>
    <voice>1</voice>
    <type>quarter</type>
    <stem>up</stem>
    <notations>
     <technical>
      <string>3</string>
      <fret>0</fret>
     </technical>
     <tied type="stop"/>
     <tied type="start"/>
    </notations>
   </note>
   <note>
    <chord/>
    <pitch>
     <step>C</step>
     <octave>4</octave>
    </pitch>
    <duration>1</duration>
    <tie type="stop"/>
    <tie type="start"/>
    <voice>1</voice>
    <type>quarter</type>
    <stem>up</stem>
    <notations>
     <technical>
      <string>2</string>
      <fret>1</fret>
     </technical>
     <tied type="stop"/>
     <tied type="start"/>
    </notations>
   </note>
   <note>
    <chord/>
    <pitch>
     <step>E</step>
     <octave>4</octave>
    </pitch>
    <duration>1</duration>
    <tie type="stop"/>
    <tie type="start"/>
    <voice>1</voice>
    <type>quarter</type>
    <stem>up</stem>
    <notations>
     <technical>
      <string>1</string>
      <fret>0</fret>
     </technical>
     <tied type="stop"/>
     <tied type="start"/>
    </notations>
   </note>
   <note>
    <pitch>
     <step>C</step>
     <octave>3</octave>
    </pitch>
    <duration>1</duration>
    <tie type="stop"/>
    <tie type="start"/>
    <voice>1</voice>
    <type>quarter</type>
    <stem>up</stem>
    <notations>
     <technical>
      <string>5</string>
      <fret>3</fret>
     </technical>
     <tied type="stop"/>
     <tied type="start"/>
    </notations>
   </note>
   <note>
    <chord/>
    <pitch>
     <step>E</step>
     <octave>3</octave>
    </pitch>
    <duration>1</duration>
    <tie type="stop"/>
    <tie type="start"/>
    <voice>1</voice>
    <type>quarter</type>
    <stem>up</stem>
    <notations>
     <technical>
      <string>4</string>
      <fret>2</fret>
     </technical>
     <tied type="stop"/>
     <tied type="start"/>
    </notations>
   </note>
   <note>
    <chord/>
    <pitch>
     <step>G</step>
     <octave>3</octave>
    </pitch>
    <duration>1</duration>
    <tie type="stop"/>
    <tie type="start"/>
    <voice>1</voice>
    <type>quarter</type>
    <stem>up</stem>
    <notations>
     <technical>
      <string>3</string>
      <fret>0</fret>
     </technical>
     <tied type="stop"/>
     <tied type="start"/>
    </notations>
   </note>
   <note>
    <chord/>
    <pitch>
     <step>C</step>
     <octave>4</octave>
    </pitch>
    <duration>1</duration>
    <tie type="stop"/>
    <tie type="start"/>
    <voice>1</voice>
    <type>quarter</type>
    <stem>up</stem>
    <notations>
     <technical>
      <string>2</string>
      <fret>1</fret>
     </technical>
     <tied type="stop"/>
     <tied type="start"/>
    </notations>
   </note>
   <note>
    <chord/>
    <pitch>
     <step>E</step>
     <octave>4</octave>
    </pitch>
    <duration>1</duration>
    <tie type="stop"/>
    <tie type="start"/>
    <voice>1</voice>
    <type>quarter</type>
    <stem>up</stem>
    <notations>
     <technical>
      <string>1</string>
      <fret>0</fret>
     </technical>
     <tied type="stop"/>
     <tied type="start"/>
    </notations>
   </note>
   <note>
    <pitch>
     <step>C</step>
     <octave>3</octave>
    </pitch>
    <duration>1</duration>
    <tie type="stop"/>
    <voice>1</voice>
    <type>quarter</type>
    <stem>up</stem>
    <notations>
     <technical>
      <string>5</string>
      <fret>3</fret>
     </technical>
     <tied type="stop"/>
    </notations>
   </note>
   <note>
    <chord/>
    <pitch>
     <step>E</step>
     <octave>3</octave>
    </pitch>
    <duration>1</duration>
    <tie type="stop"/>
    <voice>1</voice>
    <type>quarter</type>
    <stem>up</stem>
    <notations>
     <technical>
      <string>4</string>
      <fret>2</fret>
     </technical>
     <tied type="stop"/>
    </notations>
   </note>
   <note>
    <chord/>
    <pitch>
     <step>G</step>
     <octave>3</octave>
    </pitch>
    <duration>1</duration>
    <tie type="stop"/>
    <voice>1</voice>
    <type>quarter</type>
    <stem>up</stem>
    <notations>
     <technical>
      <string>3</string>
      <fret>0</fret>
     </technical>
     <tied type="stop"/>
    </notations>
   </note>
   <note>
    <chord/>
    <pitch>
     <step>C</step>
     <octave>4</octave>
    </pitch>
    <duration>1</duration>
    <tie type="stop"/>
    <voice>1</voice>
    <type>quarter</type>
    <stem>up</stem>
    <notations>
     <technical>
      <string>2</string>
      <fret>1</fret>
     </technical>
     <tied type="stop"/>
    </notations>
   </note>
   <note>
    <chord/>
    <pitch>
     <step>E</step>
     <octave>4</octave>
    </pitch>
    <duration>1</duration>
    <tie type="stop"/>
    <voice>1</voice>
    <type>quarter</type>
    <stem>up</stem>
    <notations>
     <technical>
      <string>1</string>
      <fret>0</fret>
     </technical>
     <tied type="stop"/>
    </notations>
   </note>
  </measure>
 </part>
</score-partwise>
